<svg width="591" height="401" viewBox="0 0 591 401" fill="none" xmlns="http://www.w3.org/2000/svg">
<path fill-rule="evenodd" clip-rule="evenodd" d="M412 77.9993C473.427 77.9993 544.15 47.9857 571.01 60.5478C597.293 72.84 595.405 118.63 572.808 164.405C558.391 193.61 523.5 219.843 523.5 247C523.5 264.431 539.507 270.535 544.558 293.482C550.739 321.57 548.776 349.504 535.042 365.041C509.97 393.406 477.826 391.344 429.996 391.372C390.577 391.397 345.676 394.064 302 398C224.316 404.999 103.918 401.053 45.8439 369.062C15.5462 352.372 -3.98341 308.677 7.95347 277.843C13.2623 264.129 23.9165 250.959 33.9807 244.727C49.4529 235.149 57.7571 239.033 68.1164 233.036C75.1256 228.978 72.359 219.218 70.7808 208.494C68.7276 194.543 46.9796 170.062 30.718 166.503C21.9081 164.575 19.7765 186.287 12.6204 181.576C-0.11124 173.192 0.5 142.952 0.5 133C0.5 83.7561 13.8482 27.6425 69.212 6.59445C124.24 -14.3257 192.84 25.0605 265.823 50.0167C320.367 68.6676 373.359 77.9993 412 77.9993Z" fill="#EFCFA0"/>
</svg>
